# xmcd
#
# Track frame offsets: 
#        150
#        17185
#        34207
#
# Disc length: 682 seconds
#
# Revision: 0
# Processed by: cddbd v1.5.1PL0 Copyright (c) Steve Scherf et al.
# Submitted via: ExactAudioCopy v0.95a5
#
DISCID=1e02a803
DTITLE=Toby Keith - Rock You Baby
DYEAR=1900
DGENRE=Country
TTITLE0=Rock You Baby (Single Version)
TTITLE1=Rock You Baby (Single version)
TTITLE2=Rock You Baby (Single version)
EXTD=
EXTT0=
EXTT1=
EXTT2=
PLAYORDER=
